<svg width="400" height="400" viewBox="0 0 400 400" fill="none" xmlns="http://www.w3.org/2000/svg">
  <path d="M189.4 56.8L212.6 103.2L263.8 110.9C267.9 111.6 269.7 116.6 266.7 119.5L230.2 154.9L239.3 205.8C240.1 210 235.9 213.1 232.2 211.1L186 186.7L139.8 211.1C136.1 213.1 131.9 210 132.7 205.8L141.8 154.9L105.3 119.5C102.3 116.6 104.1 111.6 108.2 110.9L159.4 103.2L182.6 56.8C184.5 53.1 187.5 53.1 189.4 56.8Z" fill="#83D5FF"/>
  <path d="M310 180C334.5 167 344.5 182.5 350 190.5L390 274C367 253 347 245 330 240.5C301.2 232.7 270.7 239.3 260.5 243.5C255.5 245.5 255 253 261 254C294.5 260 316 264.5 334 280C352 295.5 359 321 363 345C342 306 312.5 289 290 281.5C267.5 274 236.5 271.5 211 277.5C187.4 283 180.7 265.2 190 257C216.5 233 249.5 212 274 201C298.5 190 303 185.5 310 180Z" fill="#83D5FF"/>
</svg> 